<?xml version="1.0" encoding="UTF-8" standalone="no"?>
<!-- Created with Inkscape (http://www.inkscape.org/) -->

<svg
   xmlns:dc="http://purl.org/dc/elements/1.1/"
   xmlns:cc="http://creativecommons.org/ns#"
   xmlns:rdf="http://www.w3.org/1999/02/22-rdf-syntax-ns#"
   xmlns:svg="http://www.w3.org/2000/svg"
   xmlns="http://www.w3.org/2000/svg"
   xmlns:sodipodi="http://sodipodi.sourceforge.net/DTD/sodipodi-0.dtd"
   xmlns:inkscape="http://www.inkscape.org/namespaces/inkscape"
   width="995.67975"
   height="678.09576"
   id="svg4543"
   version="1.1"
   inkscape:version="0.48.4 r9939"
   sodipodi:docname="sf_example.svg">
  <defs
     id="defs4545" />
  <sodipodi:namedview
     id="base"
     pagecolor="#ffffff"
     bordercolor="#666666"
     borderopacity="1.0"
     inkscape:pageopacity="0.0"
     inkscape:pageshadow="2"
     inkscape:zoom="0.98994949"
     inkscape:cx="317.13404"
     inkscape:cy="293.09264"
     inkscape:document-units="px"
     inkscape:current-layer="layer1"
     showgrid="false"
     fit-margin-top="0"
     fit-margin-left="0"
     fit-margin-right="0"
     fit-margin-bottom="0"
     inkscape:window-width="1918"
     inkscape:window-height="1059"
     inkscape:window-x="0"
     inkscape:window-y="19"
     inkscape:window-maximized="0" />
  <metadata
     id="metadata4548">
    <rdf:RDF>
      <cc:Work
         rdf:about="">
        <dc:format>image/svg+xml</dc:format>
        <dc:type
           rdf:resource="http://purl.org/dc/dcmitype/StillImage" />
        <dc:title />
      </cc:Work>
    </rdf:RDF>
  </metadata>
  <g
     inkscape:label="Layer 1"
     inkscape:groupmode="layer"
     id="layer1"
     transform="translate(158.77823,-179.85283)">
    <path
       sodipodi:type="arc"
       style="fill:#ff5555;fill-opacity:1;stroke:#000000;stroke-width:4;stroke-linecap:butt;stroke-miterlimit:4;stroke-opacity:1;stroke-dasharray:none"
       id="path4557"
       sodipodi:cx="212.13203"
       sodipodi:cy="638.19965"
       sodipodi:rx="36.36549"
       sodipodi:ry="36.36549"
       d="m 248.49752,638.19965 c 0,20.0841 -16.28138,36.36549 -36.36549,36.36549 -20.0841,0 -36.36549,-16.28139 -36.36549,-36.36549 0,-20.08411 16.28139,-36.36549 36.36549,-36.36549 20.08411,0 36.36549,16.28138 36.36549,36.36549 z"
       transform="matrix(0.16848938,0.98570347,-0.98570347,0.16848938,611.60936,19.290351)" />
    <path
       transform="matrix(0.16848938,0.98570347,-0.98570347,0.16848938,1118.9418,457.26989)"
       sodipodi:type="arc"
       style="fill:#ff5555;fill-opacity:1;stroke:#000000;stroke-width:4;stroke-linecap:butt;stroke-miterlimit:4;stroke-opacity:1;stroke-dasharray:none"
       id="path4557-1"
       sodipodi:cx="212.13203"
       sodipodi:cy="638.19965"
       sodipodi:rx="36.36549"
       sodipodi:ry="36.36549"
       d="m 248.49752,638.19965 c 0,20.0841 -16.28138,36.36549 -36.36549,36.36549 -20.0841,0 -36.36549,-16.28139 -36.36549,-36.36549 0,-20.08411 16.28139,-36.36549 36.36549,-36.36549 20.08411,0 36.36549,16.28138 36.36549,36.36549 z" />
    <path
       transform="matrix(0.16848938,0.98570347,-0.98570347,0.16848938,878.69832,-48.909749)"
       sodipodi:type="arc"
       style="fill:#ff5555;fill-opacity:1;stroke:#000000;stroke-width:4;stroke-linecap:butt;stroke-miterlimit:4;stroke-opacity:1;stroke-dasharray:none"
       id="path4557-3"
       sodipodi:cx="212.13203"
       sodipodi:cy="638.19965"
       sodipodi:rx="36.36549"
       sodipodi:ry="36.36549"
       d="m 248.49752,638.19965 c 0,20.0841 -16.28138,36.36549 -36.36549,36.36549 -20.0841,0 -36.36549,-16.28139 -36.36549,-36.36549 0,-20.08411 16.28139,-36.36549 36.36549,-36.36549 20.08411,0 36.36549,16.28138 36.36549,36.36549 z" />
    <path
       transform="matrix(0.16848938,0.98570347,-0.98570347,0.16848938,788.17988,308.84732)"
       sodipodi:type="arc"
       style="fill:#80e5ff;fill-opacity:1;stroke:#000000;stroke-width:4;stroke-linecap:butt;stroke-miterlimit:4;stroke-opacity:1;stroke-dasharray:none"
       id="path4557-10"
       sodipodi:cx="212.13203"
       sodipodi:cy="638.19965"
       sodipodi:rx="36.36549"
       sodipodi:ry="36.36549"
       d="m 248.49752,638.19965 c 0,20.0841 -16.28138,36.36549 -36.36549,36.36549 -20.0841,0 -36.36549,-16.28139 -36.36549,-36.36549 0,-20.08411 16.28139,-36.36549 36.36549,-36.36549 20.08411,0 36.36549,16.28138 36.36549,36.36549 z" />
    <path
       transform="matrix(0.16848938,0.98570347,-0.98570347,0.16848938,1027.4235,173.67072)"
       sodipodi:type="arc"
       style="fill:#80e5ff;fill-opacity:1;stroke:#000000;stroke-width:4;stroke-linecap:butt;stroke-miterlimit:4;stroke-opacity:1;stroke-dasharray:none"
       id="path4557-10-9"
       sodipodi:cx="212.13203"
       sodipodi:cy="638.19965"
       sodipodi:rx="36.36549"
       sodipodi:ry="36.36549"
       d="m 248.49752,638.19965 c 0,20.0841 -16.28138,36.36549 -36.36549,36.36549 -20.0841,0 -36.36549,-16.28139 -36.36549,-36.36549 0,-20.08411 16.28139,-36.36549 36.36549,-36.36549 20.08411,0 36.36549,16.28138 36.36549,36.36549 z" />
    <path
       transform="matrix(0.16848938,0.98570347,-0.98570347,0.16848938,1253.4244,128.89088)"
       sodipodi:type="arc"
       style="fill:#80e5ff;fill-opacity:1;stroke:#000000;stroke-width:4;stroke-linecap:butt;stroke-miterlimit:4;stroke-opacity:1;stroke-dasharray:none"
       id="path4557-10-1"
       sodipodi:cx="212.13203"
       sodipodi:cy="638.19965"
       sodipodi:rx="36.36549"
       sodipodi:ry="36.36549"
       d="m 248.49752,638.19965 c 0,20.0841 -16.28138,36.36549 -36.36549,36.36549 -20.0841,0 -36.36549,-16.28139 -36.36549,-36.36549 0,-20.08411 16.28139,-36.36549 36.36549,-36.36549 20.08411,0 36.36549,16.28138 36.36549,36.36549 z" />
    <path
       transform="matrix(0.16848938,0.98570347,-0.98570347,0.16848938,1391.8751,337.01906)"
       sodipodi:type="arc"
       style="fill:#80e5ff;fill-opacity:1;stroke:#000000;stroke-width:4;stroke-linecap:butt;stroke-miterlimit:4;stroke-opacity:1;stroke-dasharray:none"
       id="path4557-10-2"
       sodipodi:cx="212.13203"
       sodipodi:cy="638.19965"
       sodipodi:rx="36.36549"
       sodipodi:ry="36.36549"
       d="m 248.49752,638.19965 c 0,20.0841 -16.28138,36.36549 -36.36549,36.36549 -20.0841,0 -36.36549,-16.28139 -36.36549,-36.36549 0,-20.08411 16.28139,-36.36549 36.36549,-36.36549 20.08411,0 36.36549,16.28138 36.36549,36.36549 z" />
    <path
       transform="matrix(0.16848938,0.98570347,-0.98570347,0.16848938,959.10882,310.08268)"
       sodipodi:type="arc"
       style="fill:#fff6d5;fill-opacity:1;stroke:#000000;stroke-width:4;stroke-linecap:butt;stroke-miterlimit:4;stroke-opacity:1;stroke-dasharray:none"
       id="path4557-10-8"
       sodipodi:cx="212.13203"
       sodipodi:cy="638.19965"
       sodipodi:rx="36.36549"
       sodipodi:ry="36.36549"
       d="m 248.49752,638.19965 c 0,20.0841 -16.28138,36.36549 -36.36549,36.36549 -20.0841,0 -36.36549,-16.28139 -36.36549,-36.36549 0,-20.08411 16.28139,-36.36549 36.36549,-36.36549 20.08411,0 36.36549,16.28138 36.36549,36.36549 z" />
    <path
       transform="matrix(0.16848938,0.98570347,-0.98570347,0.16848938,679.05953,425.88082)"
       sodipodi:type="arc"
       style="fill:#fff6d5;fill-opacity:1;stroke:#000000;stroke-width:4;stroke-linecap:butt;stroke-miterlimit:4;stroke-opacity:1;stroke-dasharray:none"
       id="path4557-10-8-1"
       sodipodi:cx="212.13203"
       sodipodi:cy="638.19965"
       sodipodi:rx="36.36549"
       sodipodi:ry="36.36549"
       d="m 248.49752,638.19965 c 0,20.0841 -16.28138,36.36549 -36.36549,36.36549 -20.0841,0 -36.36549,-16.28139 -36.36549,-36.36549 0,-20.08411 16.28139,-36.36549 36.36549,-36.36549 20.08411,0 36.36549,16.28138 36.36549,36.36549 z" />
    <path
       transform="matrix(0.16848938,0.98570347,-0.98570347,0.16848938,755.43412,21.350751)"
       sodipodi:type="arc"
       style="fill:#fff6d5;fill-opacity:1;stroke:#000000;stroke-width:4;stroke-linecap:butt;stroke-miterlimit:4;stroke-opacity:1;stroke-dasharray:none"
       id="path4557-10-8-0"
       sodipodi:cx="212.13203"
       sodipodi:cy="638.19965"
       sodipodi:rx="36.36549"
       sodipodi:ry="36.36549"
       d="m 248.49752,638.19965 c 0,20.0841 -16.28138,36.36549 -36.36549,36.36549 -20.0841,0 -36.36549,-16.28139 -36.36549,-36.36549 0,-20.08411 16.28139,-36.36549 36.36549,-36.36549 20.08411,0 36.36549,16.28138 36.36549,36.36549 z" />
    <path
       transform="matrix(0.16848938,0.98570347,-0.98570347,0.16848938,629.53045,256.03104)"
       sodipodi:type="arc"
       style="fill:#fff6d5;fill-opacity:1;stroke:#000000;stroke-width:4;stroke-linecap:butt;stroke-miterlimit:4;stroke-opacity:1;stroke-dasharray:none"
       id="path4557-10-8-7"
       sodipodi:cx="212.13203"
       sodipodi:cy="638.19965"
       sodipodi:rx="36.36549"
       sodipodi:ry="36.36549"
       d="m 248.49752,638.19965 c 0,20.0841 -16.28138,36.36549 -36.36549,36.36549 -20.0841,0 -36.36549,-16.28139 -36.36549,-36.36549 0,-20.08411 16.28139,-36.36549 36.36549,-36.36549 20.08411,0 36.36549,16.28138 36.36549,36.36549 z" />
    <path
       transform="matrix(0.16848938,0.98570347,-0.98570347,0.16848938,866.30581,166.36773)"
       sodipodi:type="arc"
       style="fill:#fff6d5;fill-opacity:1;stroke:#000000;stroke-width:4;stroke-linecap:butt;stroke-miterlimit:4;stroke-opacity:1;stroke-dasharray:none"
       id="path4557-10-8-6"
       sodipodi:cx="212.13203"
       sodipodi:cy="638.19965"
       sodipodi:rx="36.36549"
       sodipodi:ry="36.36549"
       d="m 248.49752,638.19965 c 0,20.0841 -16.28138,36.36549 -36.36549,36.36549 -20.0841,0 -36.36549,-16.28139 -36.36549,-36.36549 0,-20.08411 16.28139,-36.36549 36.36549,-36.36549 20.08411,0 36.36549,16.28138 36.36549,36.36549 z" />
    <path
       transform="matrix(0.16848938,0.98570347,-0.98570347,0.16848938,1163.6192,295.56084)"
       sodipodi:type="arc"
       style="fill:#fff6d5;fill-opacity:1;stroke:#000000;stroke-width:4;stroke-linecap:butt;stroke-miterlimit:4;stroke-opacity:1;stroke-dasharray:none"
       id="path4557-10-8-4"
       sodipodi:cx="212.13203"
       sodipodi:cy="638.19965"
       sodipodi:rx="36.36549"
       sodipodi:ry="36.36549"
       d="m 248.49752,638.19965 c 0,20.0841 -16.28138,36.36549 -36.36549,36.36549 -20.0841,0 -36.36549,-16.28139 -36.36549,-36.36549 0,-20.08411 16.28139,-36.36549 36.36549,-36.36549 20.08411,0 36.36549,16.28138 36.36549,36.36549 z" />
    <path
       transform="matrix(0.16848938,0.98570347,-0.98570347,0.16848938,1074.569,-5.5603493)"
       sodipodi:type="arc"
       style="fill:#fff6d5;fill-opacity:1;stroke:#000000;stroke-width:4;stroke-linecap:butt;stroke-miterlimit:4;stroke-opacity:1;stroke-dasharray:none"
       id="path4557-10-8-76"
       sodipodi:cx="212.13203"
       sodipodi:cy="638.19965"
       sodipodi:rx="36.36549"
       sodipodi:ry="36.36549"
       d="m 248.49752,638.19965 c 0,20.0841 -16.28138,36.36549 -36.36549,36.36549 -20.0841,0 -36.36549,-16.28139 -36.36549,-36.36549 0,-20.08411 16.28139,-36.36549 36.36549,-36.36549 20.08411,0 36.36549,16.28138 36.36549,36.36549 z" />
    <path
       transform="matrix(0.16848938,0.98570347,-0.98570347,0.16848938,1297.6766,-98.418249)"
       sodipodi:type="arc"
       style="fill:#fff6d5;fill-opacity:1;stroke:#000000;stroke-width:4;stroke-linecap:butt;stroke-miterlimit:4;stroke-opacity:1;stroke-dasharray:none"
       id="path4557-10-8-9"
       sodipodi:cx="212.13203"
       sodipodi:cy="638.19965"
       sodipodi:rx="36.36549"
       sodipodi:ry="36.36549"
       d="m 248.49752,638.19965 c 0,20.0841 -16.28138,36.36549 -36.36549,36.36549 -20.0841,0 -36.36549,-16.28139 -36.36549,-36.36549 0,-20.08411 16.28139,-36.36549 36.36549,-36.36549 20.08411,0 36.36549,16.28138 36.36549,36.36549 z" />
    <path
       transform="matrix(0.16848938,0.98570347,-0.98570347,0.16848938,515.96689,502.94931)"
       sodipodi:type="arc"
       style="fill:#99ff55;fill-opacity:1;stroke:#000000;stroke-width:4;stroke-linecap:butt;stroke-miterlimit:4;stroke-opacity:1;stroke-dasharray:none"
       id="path4557-10-8-7-0"
       sodipodi:cx="212.13203"
       sodipodi:cy="638.19965"
       sodipodi:rx="36.36549"
       sodipodi:ry="36.36549"
       d="m 248.49752,638.19965 c 0,20.0841 -16.28138,36.36549 -36.36549,36.36549 -20.0841,0 -36.36549,-16.28139 -36.36549,-36.36549 0,-20.08411 16.28139,-36.36549 36.36549,-36.36549 20.08411,0 36.36549,16.28138 36.36549,36.36549 z" />
    <path
       transform="matrix(0.16848938,0.98570347,-0.98570347,0.16848938,472.92355,215.16337)"
       sodipodi:type="arc"
       style="fill:#99ff55;fill-opacity:1;stroke:#000000;stroke-width:4;stroke-linecap:butt;stroke-miterlimit:4;stroke-opacity:1;stroke-dasharray:none"
       id="path4557-10-8-7-0-5"
       sodipodi:cx="212.13203"
       sodipodi:cy="638.19965"
       sodipodi:rx="36.36549"
       sodipodi:ry="36.36549"
       d="m 248.49752,638.19965 c 0,20.0841 -16.28138,36.36549 -36.36549,36.36549 -20.0841,0 -36.36549,-16.28139 -36.36549,-36.36549 0,-20.08411 16.28139,-36.36549 36.36549,-36.36549 20.08411,0 36.36549,16.28138 36.36549,36.36549 z" />
    <path
       transform="matrix(0.16848938,0.98570347,-0.98570347,0.16848938,830.81536,498.32183)"
       sodipodi:type="arc"
       style="fill:#99ff55;fill-opacity:1;stroke:#000000;stroke-width:4;stroke-linecap:butt;stroke-miterlimit:4;stroke-opacity:1;stroke-dasharray:none"
       id="path4557-10-8-7-0-6"
       sodipodi:cx="212.13203"
       sodipodi:cy="638.19965"
       sodipodi:rx="36.36549"
       sodipodi:ry="36.36549"
       d="m 248.49752,638.19965 c 0,20.0841 -16.28138,36.36549 -36.36549,36.36549 -20.0841,0 -36.36549,-16.28139 -36.36549,-36.36549 0,-20.08411 16.28139,-36.36549 36.36549,-36.36549 20.08411,0 36.36549,16.28138 36.36549,36.36549 z" />
    <path
       style="fill:#000000;stroke:#000000;stroke-width:4;stroke-linecap:butt;stroke-linejoin:miter;stroke-miterlimit:4;stroke-opacity:1;stroke-dasharray:none"
       d="M -85.214288,540.9771 1.0010666,563.4756"
       id="path4754"
       inkscape:connector-type="polyline"
       inkscape:connector-curvature="3"
       inkscape:connection-start="#path4557-10-8-7-0-5"
       inkscape:connection-start-point="d4"
       inkscape:connection-end="#path4557-10-8-7"
       inkscape:connection-end-point="d4" />
    <path
       style="fill:none;stroke:#000000;stroke-width:1px;stroke-linecap:butt;stroke-linejoin:miter;stroke-opacity:1"
       d="m 36.196839,572.66018 0,0"
       id="path4756"
       inkscape:connector-type="polyline"
       inkscape:connector-curvature="3"
       inkscape:connection-start="#path4557-10-8-7"
       inkscape:connection-start-point="d4"
       inkscape:connection-end="#path4557-10-8-7"
       inkscape:connection-end-point="d4" />
    <path
       style="fill:#000000;stroke:#000000;stroke-width:4;stroke-linecap:butt;stroke-linejoin:miter;stroke-miterlimit:4;stroke-opacity:1;stroke-dasharray:none"
       d="M 46.378137,607.57485 75.544622,707.5953"
       id="path4758"
       inkscape:connector-type="polyline"
       inkscape:connector-curvature="3"
       inkscape:connection-start="#path4557-10-8-7"
       inkscape:connection-start-point="d4"
       inkscape:connection-end="#path4557-10-8-1"
       inkscape:connection-end-point="d4" />
    <path
       style="fill:#000000;stroke:#000000;stroke-width:4;stroke-linecap:butt;stroke-linejoin:miter;stroke-miterlimit:4;stroke-opacity:1;stroke-dasharray:none"
       d="m 52.838209,758.05086 -97.317219,45.9867"
       id="path4760"
       inkscape:connector-type="polyline"
       inkscape:connector-curvature="3"
       inkscape:connection-start="#path4557-10-8-1"
       inkscape:connection-start-point="d4"
       inkscape:connection-end="#path4557-10-8-7-0"
       inkscape:connection-end-point="d4" />
    <path
       style="fill:#000000;stroke:#000000;stroke-width:4;stroke-linecap:butt;stroke-linejoin:miter;stroke-miterlimit:4;stroke-opacity:1;stroke-dasharray:none"
       d="m 118.54676,758.17707 86.11415,41.1068"
       id="path4762"
       inkscape:connector-type="polyline"
       inkscape:connector-curvature="3"
       inkscape:connection-start="#path4557-10-8-1"
       inkscape:connection-start-point="d4"
       inkscape:connection-end="#path4557-10-8-7-0-6"
       inkscape:connection-end-point="d4" />
    <path
       style="fill:#000000;stroke:#000000;stroke-width:4;stroke-linecap:butt;stroke-linejoin:miter;stroke-miterlimit:4;stroke-opacity:1;stroke-dasharray:none"
       d="m 212.33128,593.58875 43.15591,-78.70416"
       id="path4764"
       inkscape:connector-type="polyline"
       inkscape:connector-curvature="3"
       inkscape:connection-start="#path4557-10"
       inkscape:connection-start-point="d4"
       inkscape:connection-end="#path4557-10-8-6"
       inkscape:connection-end-point="d4" />
    <path
       style="fill:#000000;stroke:#000000;stroke-width:4;stroke-linecap:butt;stroke-linejoin:miter;stroke-miterlimit:4;stroke-opacity:1;stroke-dasharray:none"
       d="M 250.88048,454.10154 184.19223,366.87523"
       id="path4766"
       inkscape:connector-type="polyline"
       inkscape:connector-curvature="3"
       inkscape:connection-start="#path4557-10-8-6"
       inkscape:connection-start-point="d4"
       inkscape:connection-end="#path4557-10-8-0"
       inkscape:connection-end-point="d4" />
    <path
       style="fill:#000000;stroke:#000000;stroke-width:4;stroke-linecap:butt;stroke-linejoin:miter;stroke-miterlimit:4;stroke-opacity:1;stroke-dasharray:none"
       d="M 125.73231,337.45889 54.643946,336.4405"
       id="path4768"
       inkscape:connector-type="polyline"
       inkscape:connector-curvature="3"
       inkscape:connection-start="#path4557-10-8-0"
       inkscape:connection-start-point="d4"
       inkscape:connection-end="#path4557"
       inkscape:connection-end-point="d4" />
    <path
       style="fill:#000000;stroke:#000000;stroke-width:4;stroke-linecap:butt;stroke-linejoin:miter;stroke-miterlimit:4;stroke-opacity:1;stroke-dasharray:none"
       d="m 193.70263,319.96671 60.05996,-34.23413"
       id="path4770"
       inkscape:connector-type="polyline"
       inkscape:connector-curvature="3"
       inkscape:connection-start="#path4557-10-8-0"
       inkscape:connection-start-point="d4"
       inkscape:connection-end="#path4557-3"
       inkscape:connection-end-point="d4" />
    <path
       style="fill:#000000;stroke:#000000;stroke-width:4;stroke-linecap:butt;stroke-linejoin:miter;stroke-miterlimit:4;stroke-opacity:1;stroke-dasharray:none"
       d="m 309.30801,484.64387 88.44607,4.009"
       id="path4772"
       inkscape:connector-type="polyline"
       inkscape:connector-curvature="3"
       inkscape:connection-start="#path4557-10-8-6"
       inkscape:connection-start-point="d4"
       inkscape:connection-end="#path4557-10-9"
       inkscape:connection-end-point="d4" />
    <path
       style="fill:#000000;stroke:#000000;stroke-width:4;stroke-linecap:butt;stroke-linejoin:miter;stroke-miterlimit:4;stroke-opacity:1;stroke-dasharray:none"
       d="m 461.18896,514.55253 81.99756,73.38479"
       id="path4774"
       inkscape:connector-type="polyline"
       inkscape:connector-curvature="3"
       inkscape:connection-start="#path4557-10-9"
       inkscape:connection-start-point="d4"
       inkscape:connection-end="#path4557-10-8-4"
       inkscape:connection-end-point="d4" />
    <path
       style="fill:#000000;stroke:#000000;stroke-width:4;stroke-linecap:butt;stroke-linejoin:miter;stroke-miterlimit:4;stroke-opacity:1;stroke-dasharray:none"
       d="m 560.59896,647.25057 -25.30414,91.58788"
       id="path4776"
       inkscape:connector-type="polyline"
       inkscape:connector-curvature="3"
       inkscape:connection-start="#path4557-10-8-4"
       inkscape:connection-start-point="d4"
       inkscape:connection-end="#path4557-1"
       inkscape:connection-end-point="d4" />
    <path
       style="fill:#000000;stroke:#000000;stroke-width:4;stroke-linecap:butt;stroke-linejoin:miter;stroke-miterlimit:4;stroke-opacity:1;stroke-dasharray:none"
       d="M 469.76213,483.23176 624.41855,452.58813"
       id="path4778"
       inkscape:connector-type="polyline"
       inkscape:connector-curvature="3"
       inkscape:connection-start="#path4557-10-9"
       inkscape:connection-start-point="d4"
       inkscape:connection-end="#path4557-10-1"
       inkscape:connection-end-point="d4" />
    <path
       style="fill:#000000;stroke:#000000;stroke-width:4;stroke-linecap:butt;stroke-linejoin:miter;stroke-miterlimit:4;stroke-opacity:1;stroke-dasharray:none"
       d="M 680.2374,475.80573 778.39488,623.3625"
       id="path4780"
       inkscape:connector-type="polyline"
       inkscape:connector-curvature="3"
       inkscape:connection-start="#path4557-10-1"
       inkscape:connection-start-point="d4"
       inkscape:connection-end="#path4557-10-2"
       inkscape:connection-end-point="d4" />
    <path
       style="fill:#000000;stroke:#000000;stroke-width:4;stroke-linecap:butt;stroke-linejoin:miter;stroke-miterlimit:4;stroke-opacity:1;stroke-dasharray:none"
       d="M 144.90785,370.02644 53.389497,540.61364"
       id="path5290"
       inkscape:connector-type="polyline"
       inkscape:connector-curvature="3"
       inkscape:connection-start="#path4557-10-8-0"
       inkscape:connection-start-point="d4"
       inkscape:connection-end="#path4557-10-8-7"
       inkscape:connection-end-point="d4" />
    <path
       style="fill:#000000;stroke:#000000;stroke-width:4;stroke-linecap:butt;stroke-linejoin:miter;stroke-miterlimit:4;stroke-opacity:1;stroke-dasharray:none"
       d="m 170.0456,652.07562 -59.51901,63.83519"
       id="path5292"
       inkscape:connector-type="polyline"
       inkscape:connector-curvature="3"
       inkscape:connection-start="#path4557-10"
       inkscape:connection-start-point="d4"
       inkscape:connection-end="#path4557-10-8-1"
       inkscape:connection-end-point="d4" />
    <path
       style="fill:#000000;stroke:#000000;stroke-width:4;stroke-linecap:butt;stroke-linejoin:miter;stroke-miterlimit:4;stroke-opacity:1;stroke-dasharray:none"
       d="m 201.11501,815.48547 -242.114989,3.55849"
       id="path5294"
       inkscape:connector-type="polyline"
       inkscape:connector-curvature="3"
       inkscape:connection-start="#path4557-10-8-7-0-6"
       inkscape:connection-start-point="d4"
       inkscape:connection-end="#path4557-10-8-7-0"
       inkscape:connection-end-point="d4" />
    <path
       style="fill:#000000;stroke:#000000;stroke-width:4;stroke-linecap:butt;stroke-linejoin:miter;stroke-miterlimit:4;stroke-opacity:1;stroke-dasharray:none"
       d="M -2.7383245,365.59874 -99.395987,502.11327"
       id="path5298"
       inkscape:connector-type="polyline"
       inkscape:connector-curvature="3"
       inkscape:connection-start="#path4557"
       inkscape:connection-start-point="d4"
       inkscape:connection-end="#path4557-10-8-7-0-5"
       inkscape:connection-end-point="d4" />
    <path
       style="fill:#000000;stroke:#000000;stroke-width:4;stroke-linecap:butt;stroke-linejoin:miter;stroke-miterlimit:4;stroke-opacity:1;stroke-dasharray:none"
       d="M 238.95714,495.87787 70.211894,559.77919"
       id="path5300"
       inkscape:connector-type="polyline"
       inkscape:connector-curvature="3"
       inkscape:connection-start="#path4557-10-8-6"
       inkscape:connection-start-point="d4"
       inkscape:connection-end="#path4557-10-8-7"
       inkscape:connection-end-point="d4" />
    <path
       style="fill:#000000;stroke:#000000;stroke-width:4;stroke-linecap:butt;stroke-linejoin:miter;stroke-miterlimit:4;stroke-opacity:1;stroke-dasharray:none"
       d="m 402.052,624.13589 131.9568,-9.36997"
       id="path5302"
       inkscape:connector-type="polyline"
       inkscape:connector-curvature="3"
       inkscape:connection-start="#path4557-10-8"
       inkscape:connection-start-point="d4"
       inkscape:connection-end="#path4557-10-8-4"
       inkscape:connection-end-point="d4" />
    <path
       style="fill:#000000;stroke:#000000;stroke-width:4;stroke-linecap:butt;stroke-linejoin:miter;stroke-miterlimit:4;stroke-opacity:1;stroke-dasharray:none"
       d="m 443.34315,455.12213 28.63898,-108.8756"
       id="path5304"
       inkscape:connector-type="polyline"
       inkscape:connector-curvature="3"
       inkscape:connection-start="#path4557-10-9"
       inkscape:connection-start-point="d4"
       inkscape:connection-end="#path4557-10-8-76"
       inkscape:connection-end-point="d4" />
    <path
       style="fill:#000000;stroke:#000000;stroke-width:4;stroke-linecap:butt;stroke-linejoin:miter;stroke-miterlimit:4;stroke-opacity:1;stroke-dasharray:none"
       d="m 514.81644,297.09228 155.9455,-64.90487"
       id="path5306"
       inkscape:connector-type="polyline"
       inkscape:connector-curvature="3"
       inkscape:connection-start="#path4557-10-8-76"
       inkscape:connection-start-point="d4"
       inkscape:connection-end="#path4557-10-8-9"
       inkscape:connection-end-point="d4" />
    <path
       style="fill:#000000;stroke:#000000;stroke-width:4;stroke-linecap:butt;stroke-linejoin:miter;stroke-miterlimit:4;stroke-opacity:1;stroke-dasharray:none"
       d="M 765.25493,668.31383 558.89475,759.23341"
       id="path5308"
       inkscape:connector-type="polyline"
       inkscape:connector-curvature="3"
       inkscape:connection-start="#path4557-10-2"
       inkscape:connection-start-point="d4"
       inkscape:connection-end="#path4557-1"
       inkscape:connection-end-point="d4" />
    <path
       style="fill:#000000;stroke:#000000;stroke-width:4;stroke-linecap:butt;stroke-linejoin:miter;stroke-miterlimit:4;stroke-opacity:1;stroke-dasharray:none"
       d="m 539.22162,631.11573 -270.6759,164.9095"
       id="path5314"
       inkscape:connector-type="polyline"
       inkscape:connector-curvature="3"
       inkscape:connection-start="#path4557-10-8-4"
       inkscape:connection-start-point="d4"
       inkscape:connection-end="#path4557-10-8-7-0-6"
       inkscape:connection-end-point="d4" />
  </g>
</svg>
